<svg aria-hidden="true" style="position:absolute;width:0;height:0" xmlns="http://www.w3.org/2000/svg" overflow="hidden"><defs><symbol id="icon-at-sign" viewBox="0 0 24 24"><path d="M12 1C9.1 1 6.3 2.1 4.2 4.2S1 9.1 1 12c0 6.1 4.9 11 11 11 2.4 0 4.8-.8 6.7-2.3.4-.3.5-1 .2-1.4s-1-.5-1.4-.2C15.9 20.3 14 21 12 21c-5 0-9-4-9-9 0-2.4.9-4.7 2.6-6.4S9.6 3 12 3c5 0 9 4 9 9v1c0 1.1-.9 2-2 2s-2-.9-2-2V8c0-.6-.4-1-1-1s-1 .4-1 1c-.8-.6-1.9-1-3-1-2.8 0-5 2.2-5 5s2.2 5 5 5c1.5 0 2.8-.7 3.7-1.7.7 1 1.9 1.7 3.3 1.7 2.2 0 4-1.8 4-4v-1c0-6.1-4.9-11-11-11zm0 14c-1.7 0-3-1.3-3-3s1.3-3 3-3 3 1.3 3 3-1.3 3-3 3z"/></symbol><symbol id="icon-chevron-down" viewBox="0 0 24 24"><path d="M18.7 8.3c-.4-.4-1-.4-1.4 0L12 13.6 6.7 8.3c-.4-.4-1-.4-1.4 0s-.4 1 0 1.4l6 6c.2.2.5.3.7.3s.5-.1.7-.3l6-6c.4-.4.4-1 0-1.4z"/></symbol><symbol id="icon-chevron-up" viewBox="0 0 24 24"><path d="M18.7 14.3l-6-6c-.4-.4-1-.4-1.4 0l-6 6c-.4.4-.4 1 0 1.4s1 .4 1.4 0l5.3-5.3 5.3 5.3c.2.2.5.3.7.3s.5-.1.7-.3c.4-.4.4-1 0-1.4z"/></symbol><symbol id="icon-globe" viewBox="0 0 24 24"><path d="M12 1C5.9 1 1 5.9 1 12s4.9 11 11 11 11-4.9 11-11S18.1 1 12 1zm8.9 10h-4c-.2-2.8-1.1-5.4-2.7-7.7 3.6.9 6.3 4 6.7 7.7zM9.1 13H15c-.3 2.7-1.3 5.3-2.9 7.4-1.8-2.1-2.8-4.7-3-7.4zm0-2c.3-2.7 1.3-5.3 2.9-7.4 1.7 2.2 2.7 4.8 2.9 7.4H9.1zm.6-7.7C8.2 5.6 7.3 8.2 7.1 11h-4c.4-3.7 3.1-6.8 6.6-7.7zM3.1 13h4c.2 2.8 1.1 5.4 2.7 7.7-3.6-.9-6.3-4-6.7-7.7zm11.2 7.7c1.5-2.3 2.4-4.9 2.7-7.7h4c-.5 3.7-3.2 6.8-6.7 7.7z"/></symbol><symbol id="icon-linkedin" viewBox="0 0 24 24"><path d="M16 7c-3.9 0-7 3.1-7 7v7c0 .6.4 1 1 1h4c.6 0 1-.4 1-1v-7c0-.6.4-1 1-1s1 .4 1 1v7c0 .6.4 1 1 1h4c.6 0 1-.4 1-1v-7c0-3.9-3.1-7-7-7zm5 13h-2v-6c0-1.7-1.3-3-3-3s-3 1.3-3 3v6h-2v-6c0-2.8 2.2-5 5-5s5 2.2 5 5v6zM6 8H2c-.6 0-1 .4-1 1v12c0 .6.4 1 1 1h4c.6 0 1-.4 1-1V9c0-.6-.4-1-1-1zM5 20H3V10h2v10zM4 1C2.3 1 1 2.3 1 4s1.3 3 3 3 3-1.3 3-3-1.3-3-3-3zm0 4c-.6 0-1-.4-1-1s.4-1 1-1 1 .4 1 1-.4 1-1 1z"/></symbol><symbol id="icon-phone" viewBox="0 0 24 24"><path d="M20.4 13.9c-.9-.1-1.8-.3-2.6-.6-1.1-.4-2.3-.1-3.2.7l-.7.7c-1.8-1.2-3.4-2.7-4.6-4.6l.7-.7c.8-.8 1.1-2.1.7-3.2-.3-.8-.5-1.7-.6-2.6C9.9 2.1 8.6 1 7.1 1H3.8c-.8.1-1.5.5-2 1.1s-.7 1.4-.7 2.2c.3 3.2 1.5 6.4 3.2 9.1 1.6 2.5 3.8 4.7 6.3 6.3 2.7 1.8 5.9 2.9 9.1 3.2h.3c.8 0 1.6-.3 2.1-.9s.9-1.3.9-2.1v-3c0-1.5-1.1-2.8-2.6-3zm.6 3v3c0 .3-.1.5-.3.7s-.4.3-.8.3c-2.9-.3-5.7-1.3-8.2-2.9-2.3-1.4-4.2-3.4-5.7-5.7C4.4 9.8 3.4 7 3.1 4.1c0-.3.1-.5.2-.7.2-.2.5-.4.8-.4h3c.5 0 .9.4 1 .9.1 1 .4 2.1.8 3 .1.4 0 .8-.2 1.1L7.4 9.2c-.3.3-.4.8-.2 1.2 1.5 2.7 3.7 4.9 6.4 6.4.4.2.9.2 1.2-.2l1.3-1.3c.3-.3.7-.4 1.1-.2 1 .4 2 .6 3 .8.4.1.8.5.8 1z"/></symbol></defs></svg>